<svg xmlns="http://www.w3.org/2000/svg" xmlns:xlink="http://www.w3.org/1999/xlink" id="Capa_1" x="0" y="0" version="1.1" viewBox="0 0 448.8 448.8" xml:space="preserve" style="enable-background:new 0 0 448.8 448.8"><g><polygon style="fill:#d9ac80" points="299.2 292.4 224.4 248.4 299.2 204.8 374 160.8 448.8 204.8 374 248.4"/><polygon style="fill:#a67e4f" points="223.6 248 223.6 419.6 372 333.6 372 249.6 299.2 292.4 224.4 248.4"/><polygon style="fill:#d9ac80" points="149.6 292.4 224.4 248.4 149.6 204.8 74.8 160.8 0 204.8 74.8 248.4"/><polygon style="fill:#643513" points="224.4 72.8 299.2 116.8 374 160.8 299.2 204.8 224.4 248.4 149.6 204.8 74.8 160.8 149.6 116.8"/><g><polygon style="fill:#d9ac80" points="149.6 29.2 224.4 72.8 149.6 116.8 74.8 160.8 0 116.8 74.8 72.8"/><polygon style="fill:#d9ac80" points="299.2 29.2 224.4 72.8 299.2 116.8 374 160.8 448.8 116.8 374 72.8"/></g><polygon style="fill:#926e43" points="223.6 249.2 223.6 419.6 74.8 333.6 74.8 248.4 149.6 292.4"/><polygon style="fill:#8d5122" points="149.6 116.8 74.8 160.8 149.6 204.8 173.6 218.8 224.4 189.2 224.4 72.8"/><polygon style="fill:#77411b" points="224.4 72.8 224.4 189.2 275.2 218.8 299.2 204.8 374 160.8 299.2 116.8"/></g></svg>