<svg id="Capa_1" enable-background="new 0 0 512 512" height="512" viewBox="0 0 512 512" width="512" xmlns="http://www.w3.org/2000/svg"><g><path d="m304.164 130.419c-2.798-22.471-22.002-39.419-44.648-39.419h-63.516-105v211l30-30v-151h75 63.516c7.544 0 13.945 5.654 14.883 13.14l26.719 214.721 29.766-3.721z" fill="#ffb64c"/><path d="m274.398 134.14 26.719 214.721 29.766-3.721-26.719-214.721c-2.798-22.471-22.002-39.419-44.648-39.419h-63.516v30h63.516c7.544 0 13.945 5.654 14.882 13.14z" fill="#ff9100"/><path d="m376 392v-60h-180-75v-60h-121v210h196 195v-60z" fill="#ffd396"/><path d="m391 422-15-30v-60h-180v150h195z" fill="#ffb64c"/><path d="m391 392v-392h-30v422h151v-30z" fill="#5b5555"/><path d="m106 512c-24.814 0-45-20.186-45-45s20.186-45 45-45 45 20.186 45 45-20.186 45-45 45z" fill="#766e6e"/><circle cx="106" cy="467" fill="#fff5f5" r="15"/><path d="m286 512c-24.814 0-45-20.186-45-45s20.186-45 45-45 45 20.186 45 45-20.186 45-45 45z" fill="#5b5555"/><circle cx="286" cy="467" fill="#efe2dd" r="15"/></g></svg>